PathFileType	4	(X/Y/Z)	D:\Share\Shared_Data\Ergonomics\Sit To Stand Pertubation\S0\Free STS.trc
DataRate	CameraRate	NumFrames	NumMarkers	Units	OrigDataRate	OrigDataStartFrame	OrigNumFrames	
100	100	11	18	m	100	3848	211
Frame#	Time	R_Toe			R_ASIS			R_Pelvis			V_Sacral			L_Pelvis			L_ASIS			Clavical			R_Acromium			L_Acromium			Sternum			Torso			R_Thigh_Med			R_Thigh_Lat			R_Thigh			R_Shank_Med			R_Shank_Lat			R_Shank			R_Heel			
		X1	Y1	Z1	X2	Y2	Z2	X3	Y3	Z3	X4	Y4	Z4	X5	Y5	Z5	X6	Y6	Z6	X7	Y7	Z7	X8	Y8	Z8	X9	Y9	Z9	X10	Y10	Z10	X11	Y11	Z11	X12	Y12	Z12	X13	Y13	Z13	X14	Y14	Z14	X15	Y15	Z15	X16	Y16	Z16	X17	Y17	Z17	X18	Y18	Z18	

3848	24.9	0.37707458	0.04753323	0.1457274	-0.071802742	0.74526562	0.14402208	-0.2005022	0.72288586	0.18639499	-0.31071252	0.68820984	-0.04527647	-0.16591231	0.71271759	-0.22267339	-0.047849712	0.73884857	-0.17241963	-0.059436485	1.1238898	-0.019150518	-0.14728227	1.182566	0.12046632	-0.14889145	1.1868606	-0.17057285	-0.025701225	1.0325178	-0.035750038	-0.050860626	1.0773795	-0.14212773	0.2849657	0.49504648	0.0804505	0.25769876	0.51377209	0.21209673	0.18644881	0.64665363	0.12445563	0.2543147	0.10601337	0.11069142	0.19605426	0.091413712	0.19723947	0.23524817	0.31342682	0.22186136	0.15735684	0.049864441	0.15002394
3849	24.91	0.37707266	0.047560703	0.14573669	-0.071863899	0.74526257	0.1440583	-0.20056508	0.72287024	0.18641544	-0.31076868	0.68814886	-0.045233665	-0.16610986	0.71271582	-0.22264861	-0.047899906	0.73885858	-0.17239049	-0.059390137	1.1239001	-0.019126328	-0.14724059	1.1825833	0.12048811	-0.14884187	1.1868765	-0.17054309	-0.025657066	1.0325243	-0.035714588	-0.050809032	1.0773997	-0.1420984	0.2849216	0.49506131	0.080446007	0.25765002	0.51377869	0.21209425	0.18640379	0.64666602	0.12447154	0.25431348	0.10602722	0.11070756	0.19604631	0.091421509	0.1972494	0.2352189	0.31343365	0.22186815	0.15734531	0.049861309	0.15002853
3850	24.92	0.37706879	0.04759087	0.14575043	-0.071930801	0.74525171	0.14408546	-0.2006232	0.72285596	0.18643217	-0.31081921	0.68808887	-0.045192699	-0.16624727	0.71272919	-0.22263231	-0.047951645	0.73886877	-0.17236621	-0.059329113	1.1239154	-0.019099916	-0.14718425	1.1826012	0.12051355	-0.14877979	1.1868939	-0.17050887	-0.025598946	1.0325344	-0.035680286	-0.0507397	1.0774225	-0.14206641	0.28487259	0.49507639	0.080438332	0.25759659	0.51378607	0.21208888	0.18635747	0.64667847	0.12448428	0.25431058	0.1060421	0.1107261	0.1960365	0.091429642	0.19726241	0.23519016	0.31344049	0.22187361	0.15733231	0.049857613	0.15003549
3851	24.93	0.37706281	0.04762495	0.14576836	-0.072002792	0.74523315	0.14410156	-0.20067595	0.72284314	0.18644409	-0.31086542	0.68803357	-0.045158253	-0.16633299	0.71275452	-0.22262354	-0.048004574	0.73887872	-0.17234814	-0.059249153	1.1239336	-0.019069864	-0.14710957	1.1826198	0.12054282	-0.14870164	1.1869092	-0.17047073	-0.025524578	1.0325454	-0.03564502	-0.050648724	1.0774441	-0.1420303	0.28481967	0.49509207	0.080426445	0.25753931	0.51379486	0.21207994	0.18631064	0.64669165	0.12449268	0.2543067	0.10605875	0.11074747	0.19602492	0.091438705	0.19727878	0.23516269	0.31344739	0.22187711	0.15731766	0.049853668	0.1500448
3852	24.94	0.37705423	0.047664505	0.14578947	-0.072082802	0.74520465	0.14410413	-0.20072313	0.72283173	0.18645039	-0.31090955	0.68798505	-0.045133289	-0.16638347	0.71278705	-0.22262033	-0.048058262	0.73888782	-0.17233731	-0.059145443	1.1239523	-0.019035006	-0.14701208	1.1826375	0.12057586	-0.14860358	1.1869189	-0.17042934	-0.025431458	1.0325542	-0.035606663	-0.050532055	1.0774607	-0.14198895	0.2847637	0.49510876	0.08040921	0.25747931	0.51380536	0.2120667	0.18626389	0.64670581	0.12449547	0.25430223	0.10607799	0.11077165	0.19601149	0.09144915	0.19729857	0.2351369	0.31345447	0.22187811	0.15730118	0.049849457	0.15005629
3853	24.95	0.37704236	0.047711521	0.14581219	-0.072176689	0.74516187	0.14409056	-0.20076511	0.72282233	0.18645082	-0.31095383	0.68794385	-0.045118725	-0.16641634	0.71282257	-0.22262042	-0.048112152	0.73889563	-0.17233429	-0.059012764	1.1239695	-0.018994595	-0.14688672	1.1826539	0.12061256	-0.14848047	1.186921	-0.17038538	-0.025316744	1.0325569	-0.035563465	-0.05038549	1.0774688	-0.1419417	0.28470554	0.49512677	0.080385544	0.25741779	0.51381812	0.21204822	0.18621729	0.64672076	0.12449132	0.25429695	0.10610047	0.11079829	0.1959958	0.091461334	0.19732153	0.23511258	0.31346225	0.22187613	0.15728238	0.049844822	0.1500701
3854	24.96	0.37702618	0.047767914	0.14583453	-0.072290672	0.74510046	0.14405907	-0.20080276	0.72281573	0.18644576	-0.31100006	0.6879101	-0.045114105	-0.16644589	0.71285822	-0.22262164	-0.048165565	0.73890228	-0.17233893	-0.058845474	1.1239816	-0.018948393	-0.14672719	1.182667	0.12065285	-0.14832532	1.1869132	-0.17033949	-0.025177181	1.0325499	-0.035514248	-0.050204639	1.0774657	-0.14188861	0.28464597	0.49514627	0.080354469	0.25735559	0.51383368	0.21202333	0.18617041	0.64673633	0.12447865	0.25429031	0.10612667	0.11082688	0.19597725	0.09147541	0.19734727	0.23508899	0.31347137	0.22187064	0.15726062	0.049839363	0.15008685
3855	24.97	0.37700464	0.04783474	0.14585446	-0.072426338	0.74502002	0.14401036	-0.20083745	0.72281329	0.18643599	-0.31104977	0.68788336	-0.045118534	-0.16648141	0.71289246	-0.22262199	-0.048217804	0.73890771	-0.17235042	-0.058637493	1.1239855	-0.018896805	-0.14652602	1.1826753	0.12069664	-0.14812892	1.186895	-0.17029243	-0.025008915	1.0325292	-0.035458721	-0.049984768	1.0774481	-0.14183055	0.28458527	0.49516678	0.08031517	0.2572934	0.51385205	0.21199063	0.18612283	0.64675165	0.12445572	0.25428122	0.1061567	0.11085694	0.19595497	0.091491371	0.19737523	0.23506512	0.31348264	0.22186108	0.15723523	0.04983242	0.15010703
3856	24.98	0.3769769	0.047911659	0.14587013	-0.0725755	0.74492889	0.14394958	-0.2008707	0.72281604	0.18642255	-0.31110406	0.68786371	-0.045131203	-0.16652679	0.71292578	-0.22261986	-0.048268158	0.73891248	-0.17236737	-0.058382233	1.1239768	-0.018841034	-0.1462744	1.1826764	0.12074377	-0.14788065	1.186865	-0.170245	-0.024807301	1.0324895	-0.0353978	-0.049720444	1.0774143	-0.14176952	0.28452295	0.49518747	0.080266884	0.25723166	0.51387335	0.21194887	0.18607417	0.6467663	0.12442093	0.2542682	0.10619007	0.11088795	0.19592841	0.091509026	0.19740454	0.23504005	0.31349673	0.22184679	0.1572059	0.049823421	0.15013094
3857	24.99	0.37694232	0.047996971	0.14588017	-0.072722878	0.74484106	0.14388448	-0.20090416	0.72282507	0.18640662	-0.31116354	0.68785126	-0.045151249	-0.16658176	0.7129599	-0.22261449	-0.048316036	0.73891748	-0.17238786	-0.058072781	1.1239513	-0.018783045	-0.14596249	1.1826678	0.12079388	-0.14756955	1.1868229	-0.17019795	-0.024567116	1.0324264	-0.035333595	-0.049405632	1.0773616	-0.14170825	0.28445752	0.49520731	0.080208878	0.2571709	0.51389771	0.21189713	0.18602426	0.64678021	0.12437324	0.25424966	0.10622575	0.11091911	0.19589746	0.091528275	0.19743413	0.23501303	0.31351419	0.221827	0.15717287	0.04981221	0.15015834
3858	25	0.3769007	0.048088131	0.14588345	-0.072855141	0.74476764	0.1438221	-0.2009393	0.72284094	0.1863895	-0.31122833	0.68784619	-0.045177273	-0.16664346	0.71299695	-0.2226058	-0.048361038	0.73892365	-0.17240981	-0.057702126	1.1239044	-0.01872505	-0.14557959	1.1826476	0.1208466	-0.14718542	1.1867692	-0.17015207	-0.024283291	1.0323345	-0.035269138	-0.049034668	1.0772876	-0.14164937	0.28438657	0.4952254	0.080140541	0.25711172	0.51392529	0.21183498	0.18597307	0.64679321	0.12431232	0.25422446	0.10626235	0.11094949	0.19586243	0.091549042	0.19746298	0.23498351	0.3135354	0.22180109	0.15713675	0.049798893	0.15018826
